# xmcd
#
# Track frame offsets:
#	150
#	28070
#	45180
#
# Disc length: 822 seconds
#
# Revision: 1
# Processed by: cddbd v1.5.1PL2 Copyright (c) Steve Scherf et al.
# Submitted via: dBpowerAMP V4.0
#
DISCID=18033403
DTITLE=Stranglers - The UA Singles '79-82' CD09
DYEAR=2003
DGENRE=Alternative
TTITLE0=La Folie
TTITLE1=La Folie (radio edit)
TTITLE2=Waltzinblack
EXTD=
EXTT0=
EXTT1=
EXTT2=
PLAYORDER=
